name D:\school\WTK\thesis\model\3dpredictsim\Results\debug_batch\Pog_s1_tmt_aCst_d00_k500_ig24.mot
datacolumns 128
datarows 4
range 0.00000000 0.03280613
endheader
time	pelvis_tilt	pelvis_list	pelvis_rotation	pelvis_tx	pelvis_ty	pelvis_tz	hip_flexion_l	hip_adduction_l	hip_rotation_l	hip_flexion_r	hip_adduction_r	hip_rotation_r	knee_angle_l	knee_angle_r	ankle_angle_l	ankle_angle_r	subtalar_angle_l	subtalar_angle_r	tmt_angle_l	tmt_angle_r	mtp_angle_l	mtp_angle_r	lumbar_extension	lumbar_bending	lumbar_rotation	arm_flex_l	arm_add_l	arm_rot_l	arm_flex_r	arm_add_r	arm_rot_r	elbow_flex_l	elbow_flex_r	pro_sup_l	pro_sup_r	glut_med1_l/activation	glut_med2_l/activation	glut_med3_l/activation	glut_min1_l/activation	glut_min2_l/activation	glut_min3_l/activation	semimem_l/activation	semiten_l/activation	bifemlh_l/activation	bifemsh_l/activation	sar_l/activation	add_long_l/activation	add_brev_l/activation	add_mag1_l/activation	add_mag2_l/activation	add_mag3_l/activation	tfl_l/activation	pect_l/activation	grac_l/activation	glut_max1_l/activation	glut_max2_l/activation	glut_max3_l/activation	iliacus_l/activation	psoas_l/activation	quad_fem_l/activation	gem_l/activation	peri_l/activation	rect_fem_l/activation	vas_med_l/activation	vas_int_l/activation	vas_lat_l/activation	med_gas_l/activation	lat_gas_l/activation	soleus_l/activation	tib_post_l/activation	flex_dig_l/activation	flex_hal_l/activation	tib_ant_l/activation	per_brev_l/activation	per_long_l/activation	per_tert_l/activation	ext_dig_l/activation	ext_hal_l/activation	ercspn_l/activation	intobl_l/activation	extobl_l/activation	glut_med1_r/activation	glut_med2_r/activation	glut_med3_r/activation	glut_min1_r/activation	glut_min2_r/activation	glut_min3_r/activation	semimem_r/activation	semiten_r/activation	bifemlh_r/activation	bifemsh_r/activation	sar_r/activation	add_long_r/activation	add_brev_r/activation	add_mag1_r/activation	add_mag2_r/activation	add_mag3_r/activation	tfl_r/activation	pect_r/activation	grac_r/activation	glut_max1_r/activation	glut_max2_r/activation	glut_max3_r/activation	iliacus_r/activation	psoas_r/activation	quad_fem_r/activation	gem_r/activation	peri_r/activation	rect_fem_r/activation	vas_med_r/activation	vas_int_r/activation	vas_lat_r/activation	med_gas_r/activation	lat_gas_r/activation	soleus_r/activation	tib_post_r/activation	flex_dig_r/activation	flex_hal_r/activation	tib_ant_r/activation	per_brev_r/activation	per_long_r/activation	per_tert_r/activation	ext_dig_r/activation	ext_hal_r/activation	ercspn_r/activation	intobl_r/activation	extobl_r/activation	
          0.00000000	         -2.92909728	         -2.13562449	          5.63286753	          0.00000000	          0.85811836	         -0.00219977	        -17.33443587	         -1.62673595	          8.07445285	         31.78063353	          3.10053674	         -2.13377209	         -9.62512805	        -15.68646155	         -1.49874994	          5.48737461	         12.43430239	         -1.44194416	          3.25699325	          0.07122641	         22.20053062	         -0.10061267	         -1.97957902	          0.67855344	         -1.83613380	          6.11452622	        -13.46381629	         16.28804596	         -8.81478349	        -13.61785554	          6.30308642	         38.13427825	         16.61945015	         86.51662706	         86.51662706	          0.30442530	          0.10568469	          0.05672845	          0.35114315	          0.21882114	          0.10764917	          0.05000349	          0.05000022	          0.05000014	          0.07383423	          0.10431513	          0.08407527	          0.05000079	          0.05000048	          0.05000097	          0.05000078	          0.29190743	          0.05013914	          0.05000037	          0.05000193	          0.05000102	          0.05000080	          0.33346807	          0.53428151	          0.05000006	          0.05000025	          0.05000011	          0.19292471	          0.09697917	          0.05012210	          0.05179038	          0.28845270	          0.38704854	          0.28839849	          0.23576985	          0.25554231	          0.32268159	          0.05000001	          0.07622167	          0.16249934	          0.05000017	          0.05000003	          0.05000012	          0.05000002	          0.05000002	          0.05000008	          0.05911281	          0.05911242	          0.05000038	          0.05911213	          0.05910913	          0.05911119	          0.05911285	          0.05911285	          0.16881730	          0.05000208	          0.05000056	          0.11548614	          0.23764741	          0.11711729	          0.17215198	          0.08078046	          0.05000383	          0.05011076	          0.09787101	          0.05890775	          0.05697592	          0.09723635	          0.05000855	          0.05096480	          0.31430402	          0.06133818	          0.07112930	          0.05000006	          0.10329669	          0.11651850	          0.08997637	          0.05911279	          0.05911275	          0.05911280	          0.05000030	          0.05000291	          0.05000292	          0.49077660	          0.32622207	          0.19748889	          0.22701471	          0.55251165	          0.05000017	          0.05911281	          0.10176939	          0.09768251	
          0.01093538	         -2.92249368	         -2.23825816	          5.88464320	          0.01663801	          0.85714945	         -0.00198558	        -17.04410982	         -1.91908857	          7.83504645	         31.10486648	          3.55001415	         -1.92293987	        -11.78681236	        -15.61612202	         -2.37733170	          4.87733065	         13.50491938	         -1.93135865	          2.72099716	          0.06252209	         23.31697624	         -0.08983366	         -1.77593226	          0.91734525	         -1.91844881	          5.84669874	        -13.48574770	         16.53236849	         -9.84052044	        -13.61149197	          6.11265282	         39.24633440	         16.48136217	         86.51662706	         86.51662706	          0.25749524	          0.08939240	          0.05911305	          0.29701116	          0.18508781	          0.09105407	          0.05000655	          0.05000054	          0.05000113	          0.06245199	          0.08823421	          0.18283966	          0.17026993	          0.08493286	          0.05008644	          0.05001584	          0.24690719	          0.10608660	          0.05905175	          0.05000294	          0.05000151	          0.05000162	          0.28206078	          0.46727622	          0.05317758	          0.05913753	          0.05911301	          0.16318353	          0.13653315	          0.13653410	          0.13653340	          0.24398493	          0.32738127	          0.24393907	          0.19942372	          0.21614832	          0.27293727	          0.05000003	          0.06447140	          0.13744855	          0.05000010	          0.05000005	          0.05000012	          0.05000024	          0.07416689	          0.05000015	          0.05000003	          0.05000006	          0.05911167	          0.05000008	          0.05000009	          0.05000010	          0.05000006	          0.05000010	          0.14279251	          0.05000015	          0.06988134	          0.09768336	          0.22019916	          0.36163905	          0.20727664	          0.06832745	          0.05000012	          0.08236055	          0.08278364	          0.05000060	          0.05911360	          0.13834512	          0.06601349	          0.06988566	          0.60342042	          0.23881269	          0.22403676	          0.06992820	          0.24548843	          0.24746480	          0.20871474	          0.05000001	          0.05000003	          0.05000000	          0.05000163	          0.06988594	          0.05235767	          0.58249149	          0.27593196	          0.22352189	          0.43260404	          0.59829517	          0.05911397	          0.05000002	          0.08608066	          0.08262382	
          0.02187075	         -2.91140931	         -2.34345788	          6.10931270	          0.03356240	          0.85607441	         -0.00180252	        -16.68980122	         -2.20019073	          7.58162488	         30.24325107	          3.91512781	         -1.62743797	        -14.05567436	        -15.89114909	         -3.37977897	          4.35813992	         14.49151228	         -2.45200950	          2.13020144	         -0.06692807	         24.20616394	         -0.14849758	         -1.55130315	          1.16557004	         -1.98819920	          5.49427750	        -13.50755684	         16.70075989	        -10.86618098	        -13.61308731	          5.99231175	         40.34095567	         16.33548232	         86.51662706	         86.51662706	          0.37856027	          0.07561172	          0.05000034	          0.25122449	          0.15655481	          0.07701725	          0.06156731	          0.05000018	          0.05000017	          0.05282444	          0.07463227	          0.16450289	          0.26865027	          0.07184011	          0.05911178	          0.05006956	          0.20884441	          0.08974185	          0.05000185	          0.05013446	          0.05022934	          0.05907681	          0.23857844	          0.43639835	          0.05639810	          0.05002117	          0.05000022	          0.13802722	          0.11548559	          0.11548622	          0.11548559	          0.20637229	          0.27691229	          0.20633350	          0.16868065	          0.18282707	          0.23086143	          0.10575931	          0.11152375	          0.17586176	          0.05000017	          0.15252921	          0.05000115	          0.06662931	          0.06273335	          0.05911278	          0.25985568	          0.28193720	          0.05000009	          0.05000032	          0.05000033	          0.30829506	          0.09458919	          0.10772149	          0.14174497	          0.05000015	          0.05910866	          0.08262464	          0.18625363	          0.30588900	          0.17532335	          0.11344168	          0.05000038	          0.06970267	          0.11464848	          0.05000029	          0.05000083	          0.11701814	          0.05583721	          0.05911217	          0.51039735	          0.20199748	          0.25697314	          0.05914810	          0.20764406	          0.20931576	          0.17653938	          0.05911256	          0.05911258	          0.05911279	          0.05000012	          0.05911273	          0.05911278	          0.55224732	          0.41268362	          0.18906410	          0.36591442	          0.63561606	          0.05000099	          0.05000005	          0.09562529	          0.06988656	
          0.03280613	         -2.89767138	         -2.44817481	          6.30032757	          0.05056133	          0.85489857	         -0.00160917	        -16.23877663	         -2.46408895	          7.32880813	         29.23861453	          4.23261231	         -1.31988275	        -16.48191728	        -16.12173735	         -4.39270389	          3.99228445	         15.38367126	         -3.00264207	          1.50869797	         -0.02217894	         24.61700359	         -0.15890916	         -1.32733340	          1.41583807	         -2.04793896	          5.09146219	        -13.53766998	         16.81372756	        -11.84178264	        -13.61981319	          5.95537294	         41.40282410	         16.15560189	         86.51662706	         86.51662706	          0.32020163	          0.06395546	          0.05000003	          0.21766240	          0.13242045	          0.06514435	          0.08473346	          0.05000036	          0.05000034	          0.05000022	          0.06312766	          0.17472903	          0.22723561	          0.06076546	          0.05000115	          0.05000103	          0.17664930	          0.07590874	          0.05000044	          0.05000053	          0.05000033	          0.05000020	          0.20179930	          0.37837566	          0.05000004	          0.05000024	          0.05000021	          0.11674900	          0.09768242	          0.09768295	          0.09768241	          0.17455800	          0.23422359	          0.17452519	          0.14267693	          0.15464266	          0.19527202	          0.19438600	          0.13091151	          0.14875139	          0.33544258	          0.24774128	          0.14640324	          0.09929255	          0.05306240	          0.05000004	          0.39543827	          0.39834851	          0.36083081	          0.25215344	          0.22701661	          0.26076969	          0.08000783	          0.12086157	          0.11989365	          0.06988751	          0.05000053	          0.06988730	          0.15754087	          0.25873351	          0.22752651	          0.15682084	          0.05000025	          0.05895800	          0.10328623	          0.23331894	          0.17031619	          0.13959903	          0.05000010	          0.05000011	          0.43171469	          0.17085769	          0.21735849	          0.05002986	          0.21310191	          0.25231896	          0.19058685	          0.05000004	          0.05000006	          0.05000000	          0.05000000	          0.05000016	          0.05000011	          0.66073507	          0.34906467	          0.17025726	          0.63326977	          0.66631027	          0.31504067	          0.07484745	          0.08088374	          0.05911288	
